<svg xmlns="http://www.w3.org/2000/svg" xmlns:xlink="http://www.w3.org/1999/xlink" contentStyleType="text/css" data-diagram-type="DESCRIPTION" height="190px" preserveAspectRatio="none" style="width:312px;height:190px;background:#FFFFFF;" version="1.1" viewBox="0 0 312 190" width="312px" zoomAndPan="magnify"><defs/><g><!--entity ds--><g id="elem_ds"><rect fill="#F1F1F1" height="49.0679" rx="2.5" ry="2.5" style="stroke:#181818;stroke-width:0.5;" width="119.8277" x="186.92" y="135.07"/><rect fill="#F1F1F1" height="10" style="stroke:#181818;stroke-width:0.5;" width="15" x="286.7477" y="140.07"/><rect fill="#F1F1F1" height="2" style="stroke:#181818;stroke-width:0.5;" width="4" x="284.7477" y="142.07"/><rect fill="#F1F1F1" height="2" style="stroke:#181818;stroke-width:0.5;" width="4" x="284.7477" y="146.07"/><text fill="#000000" font-family="sans-serif" font-size="14" lengthAdjust="spacing" textLength="79.8277" x="201.92" y="170.0359">Data Source</text></g><!--entity dt--><g id="elem_dt"><rect fill="#F1F1F1" height="49.0679" rx="2.5" ry="2.5" style="stroke:#181818;stroke-width:0.5;" width="110.3777" x="18.65" y="135.07"/><rect fill="#F1F1F1" height="10" style="stroke:#181818;stroke-width:0.5;" width="15" x="109.0277" y="140.07"/><rect fill="#F1F1F1" height="2" style="stroke:#181818;stroke-width:0.5;" width="4" x="107.0277" y="142.07"/><rect fill="#F1F1F1" height="2" style="stroke:#181818;stroke-width:0.5;" width="4" x="107.0277" y="146.07"/><text fill="#000000" font-family="sans-serif" font-size="14" lengthAdjust="spacing" textLength="70.3777" x="33.65" y="170.0359">Data Table</text></g><!--entity ui--><g id="elem_ui"><rect fill="#F1F1F1" height="49.0679" rx="2.5" ry="2.5" style="stroke:#181818;stroke-width:0.5;" width="133.6736" x="7" y="7"/><rect fill="#F1F1F1" height="10" style="stroke:#181818;stroke-width:0.5;" width="15" x="120.6736" y="12"/><rect fill="#F1F1F1" height="2" style="stroke:#181818;stroke-width:0.5;" width="4" x="118.6736" y="14"/><rect fill="#F1F1F1" height="2" style="stroke:#181818;stroke-width:0.5;" width="4" x="118.6736" y="18"/><text fill="#000000" font-family="sans-serif" font-size="14" lengthAdjust="spacing" textLength="93.6736" x="22" y="41.9659">User Interface</text></g><!--link ui to dt--><g id="link_ui_dt"><path d="M73.84,56.55 C73.84,78.98 73.84,106.28 73.84,128.69 " fill="transparent" id="ui-to-dt" style="stroke:#181818;stroke-width:1;stroke-dasharray:7.0,7.0;"/><polygon fill="#181818" points="73.84,134.69,77.84,125.69,73.84,129.69,69.84,125.69,73.84,134.69" style="stroke:#181818;stroke-width:1;"/><text fill="#000000" font-family="sans-serif" font-size="13" lengthAdjust="spacing" textLength="21.593" x="74.84" y="100.967">use</text></g><!--link dt to ds--><g id="link_dt_ds"><path d="M129.05,159.61 C147.34,159.61 161.8,159.61 180.46,159.61 " fill="transparent" id="dt-to-ds" style="stroke:#181818;stroke-width:1;"/><polygon fill="#181818" points="186.46,159.61,177.46,155.61,181.46,159.61,177.46,163.61,186.46,159.61" style="stroke:#181818;stroke-width:1;"/><text fill="#000000" font-family="sans-serif" font-size="13" lengthAdjust="spacing" textLength="21.593" x="147.47" y="152.507">use</text></g><!--SRC=[IyxFBSZFIyqhKOXsIIn9L0ZEBorAJerLI2nMI2dcIaQJ3KbCoe5AbY1BXXQd5YbuvfMa5gKbGdMNPd9nbMOgwEdP0TLQAPGMftAbb2Ze0dd541u0]--></g></svg>