<svg xmlns="http://www.w3.org/2000/svg" xmlns:xlink="http://www.w3.org/1999/xlink" contentStyleType="text/css" data-diagram-type="DESCRIPTION" height="318px" preserveAspectRatio="none" style="width:499px;height:318px;background:#FFFFFF;" version="1.1" viewBox="0 0 499 318" width="499px" zoomAndPan="magnify"><defs/><g><!--entity se--><g id="elem_se"><rect fill="#F1F1F1" height="49.0679" rx="2.5" ry="2.5" style="stroke:#181818;stroke-width:0.5;" width="148.2896" x="7" y="263.13"/><rect fill="#F1F1F1" height="10" style="stroke:#181818;stroke-width:0.5;" width="15" x="135.2896" y="268.13"/><rect fill="#F1F1F1" height="2" style="stroke:#181818;stroke-width:0.5;" width="4" x="133.2896" y="270.13"/><rect fill="#F1F1F1" height="2" style="stroke:#181818;stroke-width:0.5;" width="4" x="133.2896" y="274.13"/><text fill="#000000" font-family="sans-serif" font-size="14" lengthAdjust="spacing" textLength="108.2896" x="22" y="298.0959">Source Endpoint</text></g><!--entity te--><g id="elem_te"><rect fill="#F1F1F1" height="49.0679" rx="2.5" ry="2.5" style="stroke:#181818;stroke-width:0.5;" width="146.0636" x="190.11" y="263.13"/><rect fill="#F1F1F1" height="10" style="stroke:#181818;stroke-width:0.5;" width="15" x="316.1736" y="268.13"/><rect fill="#F1F1F1" height="2" style="stroke:#181818;stroke-width:0.5;" width="4" x="314.1736" y="270.13"/><rect fill="#F1F1F1" height="2" style="stroke:#181818;stroke-width:0.5;" width="4" x="314.1736" y="274.13"/><text fill="#000000" font-family="sans-serif" font-size="14" lengthAdjust="spacing" textLength="106.0636" x="205.11" y="298.0959">Target Endpoint</text></g><!--entity t--><g id="elem_t"><rect fill="#F1F1F1" height="49.0679" rx="2.5" ry="2.5" style="stroke:#181818;stroke-width:0.5;" width="122.6137" x="370.84" y="263.13"/><rect fill="#F1F1F1" height="10" style="stroke:#181818;stroke-width:0.5;" width="15" x="473.4537" y="268.13"/><rect fill="#F1F1F1" height="2" style="stroke:#181818;stroke-width:0.5;" width="4" x="471.4537" y="270.13"/><rect fill="#F1F1F1" height="2" style="stroke:#181818;stroke-width:0.5;" width="4" x="471.4537" y="274.13"/><text fill="#000000" font-family="sans-serif" font-size="14" lengthAdjust="spacing" textLength="82.6137" x="385.84" y="298.0959">Transformer</text></g><!--entity p--><g id="elem_p"><rect fill="#F1F1F1" height="49.0679" rx="2.5" ry="2.5" style="stroke:#181818;stroke-width:0.5;" width="92.3598" x="216.96" y="135.06"/><rect fill="#F1F1F1" height="10" style="stroke:#181818;stroke-width:0.5;" width="15" x="289.3198" y="140.06"/><rect fill="#F1F1F1" height="2" style="stroke:#181818;stroke-width:0.5;" width="4" x="287.3198" y="142.06"/><rect fill="#F1F1F1" height="2" style="stroke:#181818;stroke-width:0.5;" width="4" x="287.3198" y="146.06"/><text fill="#000000" font-family="sans-serif" font-size="14" lengthAdjust="spacing" textLength="52.3598" x="231.96" y="170.0259">Pipeline</text></g><!--entity ui--><g id="elem_ui"><rect fill="#F1F1F1" height="49.0679" rx="2.5" ry="2.5" style="stroke:#181818;stroke-width:0.5;" width="133.6736" x="196.31" y="7"/><rect fill="#F1F1F1" height="10" style="stroke:#181818;stroke-width:0.5;" width="15" x="309.9836" y="12"/><rect fill="#F1F1F1" height="2" style="stroke:#181818;stroke-width:0.5;" width="4" x="307.9836" y="14"/><rect fill="#F1F1F1" height="2" style="stroke:#181818;stroke-width:0.5;" width="4" x="307.9836" y="18"/><text fill="#000000" font-family="sans-serif" font-size="14" lengthAdjust="spacing" textLength="93.6736" x="211.31" y="41.9659">User Interface</text></g><!--link ui to p--><g id="link_ui_p"><path d="M263.14,56.54 C263.14,78.97 263.14,106.28 263.14,128.68 " fill="transparent" id="ui-to-p" style="stroke:#181818;stroke-width:1;stroke-dasharray:7.0,7.0;"/><polygon fill="#181818" points="263.14,134.68,267.14,125.68,263.14,129.68,259.14,125.68,263.14,134.68" style="stroke:#181818;stroke-width:1;"/><text fill="#000000" font-family="sans-serif" font-size="13" lengthAdjust="spacing" textLength="21.593" x="264.14" y="100.957">use</text></g><!--link p to se--><g id="link_p_se"><path d="M228.48,184.61 C196.1,207.04 152.9517,236.9226 120.6117,259.3326 " fill="transparent" id="p-to-se" style="stroke:#181818;stroke-width:1;stroke-dasharray:7.0,7.0;"/><polygon fill="#181818" points="115.68,262.75,125.3558,260.9117,119.7897,259.9022,120.7992,254.3361,115.68,262.75" style="stroke:#181818;stroke-width:1;"/><text fill="#000000" font-family="sans-serif" font-size="13" lengthAdjust="spacing" textLength="21.593" x="184.04" y="229.027">use</text></g><!--link p to te--><g id="link_p_te"><path d="M263.14,184.61 C263.14,207.04 263.14,234.34 263.14,256.75 " fill="transparent" id="p-to-te" style="stroke:#181818;stroke-width:1;stroke-dasharray:7.0,7.0;"/><polygon fill="#181818" points="263.14,262.75,267.14,253.75,263.14,257.75,259.14,253.75,263.14,262.75" style="stroke:#181818;stroke-width:1;"/><text fill="#000000" font-family="sans-serif" font-size="13" lengthAdjust="spacing" textLength="21.593" x="264.14" y="229.027">use</text></g><!--link p to t--><g id="link_p_t"><path d="M295.33,184.61 C325.4,207.04 365.2414,236.7515 395.2714,259.1615 " fill="transparent" id="p-to-t" style="stroke:#181818;stroke-width:1;stroke-dasharray:7.0,7.0;"/><polygon fill="#181818" points="400.08,262.75,395.2594,254.1616,396.0728,259.7596,390.4747,260.5731,400.08,262.75" style="stroke:#181818;stroke-width:1;"/><text fill="#000000" font-family="sans-serif" font-size="13" lengthAdjust="spacing" textLength="21.593" x="358.76" y="229.027">use</text></g><!--SRC=[LSun3W8n34JHFgVm2VO057GKT4X0XIYYC8iiiOvbE_S7RGgIykjDCQLkMWKIzBZMPWLqafTMbdXITdAayb_SihqHyoBcXMNnjTe6wphYXHKV5koYezmTHcS9s9fBzyOfDQPbEP8UgFsEw1wEiMAk7by0]--></g></svg>